<svg version="1" xmlns="http://www.w3.org/2000/svg" width="346.667" height="346.667" viewBox="0 0 260.000000 260.000000"><path d="M70.2 41.6C50.3 46.9 37.6 60.9 35 80.3c-.6 4.7-1 32-1 67.3 0 64.6-.2 62 5.7 67.6 3.8 3.6 7.3 4.8 14 4.8 6.9 0 13.1-3.3 16.5-8.7l2.3-3.8.6-61c.4-44.4.9-61.6 1.7-63.2 2.9-5.2 3.3-5.3 36.8-5.3h31.2l5.3-2.8c13.4-7 13.3-26.5-.3-33.1-4.3-2-5.6-2.1-38.4-2-26 0-35.1.4-39.2 1.5zM198.5 41.7c-4.4 2.3-6.5 4.4-8.6 8.5-1.7 3.4-1.9 6.4-2 32.5-.1 15.8-.4 43.5-.8 61.5-.6 32.3-.6 32.8-2.9 35-2.2 2.3-2.6 2.3-35.6 2.8l-33.3.5-4.1 2.8c-5.3 3.4-8.2 9.1-8.2 15.6 0 6.1 1.3 9.7 4.8 13.5 5.1 5.5 6.2 5.6 42.8 5.6 37 0 40.3-.4 51.7-6.2 11.1-5.5 19.8-16.7 22.7-28.9.6-2.6 1.3-30.3 1.6-67.4.7-59.2.6-63.2-1.1-66.5-2.4-4.9-4.4-6.9-8.7-9.1-4.6-2.4-14.1-2.5-18.3-.2z"/></svg>