<svg xmlns="http://www.w3.org/2000/svg" width="24" height="24" viewBox="0 0 24 24">
    <g fill="none" fill-rule="evenodd">
        <path fill="#FFF" d="M18 .565c-3.882 0-7.694-.07-11.576-.07-3.318 0-5.93 2.54-5.93 5.858 0 3.882-.07 7.694-.07 11.576 0 3.318 2.54 5.93 5.858 5.93H17.86c3.317 0 5.93-2.541 5.93-5.859 0-3.882.07-7.694.07-11.576.07-3.248-2.47-5.86-5.859-5.86z"/>
        <path fill="#FF671B" d="M11.435 20.33h4.589c1.976 0 3.105-.777 3.74-1.412 1.13-1.27 1.06-2.753 1.06-3.247l.07-9.953c0-.918-.776-1.694-1.765-1.694-.988 0-1.764.776-1.764 1.694l-.07 10.023v.07c0 .565-.213.989-.777 1.06h-5.083c-.988 0-1.764.776-1.764 1.694 0 .988.776 1.764 1.764 1.764"/>
        <path fill="#00A7CE" d="M12.918 4.024H8.329c-1.976 0-3.105.776-3.74 1.411-1.13 1.27-1.06 2.753-1.06 3.247l-.07 9.953c0 .918.776 1.694 1.765 1.694.988 0 1.764-.776 1.764-1.694l.07-10.023v-.07c0-.566.213-.99.777-1.06h5.083c.988 0 1.764-.776 1.764-1.694 0-.988-.776-1.694-1.764-1.764"/>
    </g>
</svg>
