<?xml version="1.0" encoding="UTF-8"?>
<svg width="70px" height="70px" viewBox="0 0 70 70" version="1.1" xmlns="http://www.w3.org/2000/svg" xmlns:xlink="http://www.w3.org/1999/xlink">
    <!-- Generator: sketchtool 51.2 (57519) - http://www.bohemiancoding.com/sketch -->
    <title>609A302C-CE90-4FEE-9A06-7EBFC88EA5EA</title>
    <desc>Created with sketchtool.</desc>
    <defs></defs>
    <g id="MKT-Landings" stroke="none" stroke-width="1" fill="none" fill-rule="evenodd">
        <g id="ebook---MKT---Desktop-HD---003" transform="translate(-977.000000, -391.000000)" fill="#1BB50B" fill-rule="nonzero">
            <g id="email-enviado" transform="translate(797.000000, 391.000000)">
                <path d="M214.9993,0 C234.298825,0 250,15.701 250,35 C250,54.299 234.298825,70 214.9993,70 C195.699775,70 180,54.299 180,35 C180,15.701 195.699775,0 214.9993,0 Z M227.67105,23.54205 L209.623125,41.5891 L202.32755,34.2951 C201.431025,33.399625 199.9787,33.3991 199.082175,34.295625 C198.1853,35.1925 198.1853,36.645 199.082175,37.541525 L208.0007,46.45865 C208.448875,46.9063 209.036,47.1303 209.623125,47.1303 C210.21025,47.1303 210.79895,46.9063 211.24695,46.45795 C211.24835,46.456025 211.2494,46.4541 211.251675,46.451825 L230.91625,26.787425 C231.813125,25.891425 231.813125,24.437875 230.91625,23.541875 C230.0199,22.64535 228.566525,22.64535 227.67105,23.54205 Z" id="icon-confirmation"></path>
            </g>
        </g>
    </g>
</svg>