<svg xmlns="http://www.w3.org/2000/svg" width="214" height="37" viewBox="0 0 214 37">
    <g fill="none" fill-rule="evenodd">
        <path fill="#FF671B" d="M194.6 27.1h4.5c.8 0 1.3-.1 1.6-.4.3-.3.3-.8.3-1V13.5h-4.5c-.8 0-1.3.1-1.6.5-.2.3-.2.9-.2 1.2v11.9h-.1zm4.6 4.9h-6.6c-2.7 0-3-2-3-2.8V2.5c0-1.3 1.1-2.4 2.5-2.4s2.5 1.1 2.5 2.4v6.4c.6-.1 1.2-.2 1.8-.2h6.6c1 0 1.9.5 2.5 1.4.4.5.5 1.2.5 1.8v13.5c0 .7.1 2.8-1.5 4.6-.9.8-2.5 2-5.3 2zM177.5 12.3c-4.1 0-4.7 3.8-4.7 8 0 7 2.3 8 4.7 8 2.4 0 4.7-1 4.7-8s-2.3-8-4.7-8m0 20.2c-6.6 0-10-4.1-10-12.2s3.4-12.2 10-12.2c6.7 0 10 4 10 12.2 0 8.1-3.4 12.2-10 12.2"/>
        <path fill="#00A7CE" d="M69.4 12.3c-4.1 0-4.7 3.8-4.7 8 0 7 2.3 8 4.7 8 2.4 0 4.7-1 4.7-8s-2.3-8-4.7-8m0 20.2c-6.6 0-10-4.1-10-12.2s3.4-12.2 10-12.2c6.7 0 10 4 10 12.2 0 8.1-3.4 12.2-10 12.2M114.6 32.1c-1.5 0-2.3-.3-2.3-.3l-.3-.1V15.9c0-2.2-1.2-3.3-3.5-3.3-1.7 0-3.4.9-4.4 2.4v16.7l-.3.1s-.9.3-2.3.3c-1.6 0-2.3-.3-2.3-.3l-.3-.1V9l.3-.1c.1 0 .8-.3 2.3-.3 1.4 0 2.3.3 2.3.3l.3.1v1.2c1.6-1.4 3.6-2.1 6-2.1 4.4 0 7.1 2.7 7.1 7v16.6l-.3.1c0-.1-.8.3-2.3.3M124.8 18.1h8.3c0-.4.1-.9.1-1.5 0-2.8-1.3-4.2-3.8-4.2-2.7 0-4.2 1.9-4.6 5.7m4.8 14.4c-6.8 0-10.2-4.2-10.2-12.3 0-7.8 3.6-12.1 10-12.1 5.7 0 9 3.3 9 9.1 0 2.7-.5 4.5-.5 4.6l-.1.3h-13c.5 5.1 2.9 5.8 5.5 5.8 2.9 0 4.8-1.2 4.8-1.2l.3-.2.3.2c.9.8 1.5 2.1 1.5 3.4v.2l-.2.1c-.1.3-2.6 2.1-7.4 2.1"/>
        <path fill="#FF671B" d="M210.1 10.7h1.1c.1 0 .3.1.4.1l.3.3c.1.1.1.3.1.4 0 .1 0 .2-.1.3 0 .1-.1.2-.1.2l-.2.2c-.1 0-.1.1-.2.1l.9 1.2h-.5l-1-1.3.2-.1c.1 0 .1-.1.2-.1s.1-.1.2-.1.1-.1.1-.2.1-.1.1-.2c0-.2-.1-.3-.2-.4-.1-.1-.3-.1-.5-.1h-.3v2.5h-.4v-2.8h-.1zm.8 3.8c.4 0 .7-.1.9-.2.3-.1.5-.3.7-.5.2-.2.3-.5.5-.7.1-.3.2-.6.2-.9 0-.3-.1-.6-.2-.9-.1-.3-.3-.5-.5-.7-.2-.2-.4-.4-.7-.5-.3-.1-.6-.2-.9-.2-.3 0-.7.1-.9.2-.3.1-.5.3-.7.5-.2.2-.3.5-.4.7-.1.3-.2.6-.2.9 0 .3.1.6.2.9.1.3.3.5.4.7.2.2.4.4.7.5.2.1.6.2.9.2zm0 .4c-.4 0-.8-.1-1.1-.2-.3-.1-.6-.3-.9-.6-.2-.2-.4-.5-.6-.9-.1-.3-.2-.7-.2-1.1 0-.4.1-.8.2-1.1.1-.3.3-.6.6-.9.2-.2.5-.4.9-.6.3-.1.7-.2 1.1-.2.4 0 .8.1 1.1.2.3.1.6.3.9.6.2.2.4.5.6.9.1.3.2.7.2 1.1 0 .4-.1.8-.2 1.1-.1.3-.3.6-.6.9-.2.2-.5.4-.9.6-.3.2-.7.2-1.1.2z"/>
        <path fill="#00A7CE" d="M154.1 8.7h-6.6c-2.8 0-4.5 1.1-5.3 2-1.6 1.8-1.5 4-1.5 4.6v14.2c0 1.3 1.1 2.4 2.5 2.4s2.5-1.1 2.5-2.4V15.1c0-.8.3-1.4 1.1-1.5h7.3c1.4 0 2.5-1.1 2.5-2.4 0-1.4-1.1-2.5-2.5-2.5"/>
        <path fill="#FF671B" d="M152.1 31.9h6.6c2.8 0 4.5-1.1 5.3-2 1.6-1.8 1.5-4 1.5-4.6V11.1c0-1.3-1.1-2.4-2.5-2.4s-2.5 1.1-2.5 2.4v14.4c0 .8-.3 1.4-1.1 1.5h-7.3c-1.4 0-2.5 1.1-2.5 2.4 0 1.5 1.1 2.5 2.5 2.5"/>
        <path fill="#00A7CE" d="M94.7 8.7h-6.6c-2.8 0-4.5 1.1-5.3 2-1.6 1.8-1.5 4-1.5 4.6v14.2c0 1.3 1.1 2.4 2.5 2.4s2.5-1.1 2.5-2.4V15.1c0-.8.3-1.4 1.1-1.5h7.3c1.4 0 2.5-1.1 2.5-2.4 0-1.4-1.1-2.5-2.5-2.5M55.8 27.1h-7.3c-.7-.2-1-.7-1.1-1.4V15c0-.8.3-1.3 1.1-1.4h7.3c1.4 0 2.5-1.1 2.5-2.4 0-1.3-1.1-2.4-2.5-2.4h-6.6c-2.8 0-4.5 1.1-5.3 2-1.6 1.8-1.5 4-1.5 4.6v10c0 .6-.1 2.8 1.5 4.6.8.9 2.5 2 5.3 2h6.6c1.4 0 2.5-1.1 2.5-2.4 0-1.4-1.2-2.5-2.5-2.5"/>
        <path fill="#FFF" d="M25.5 3.8c-5.5 0-10.9-.1-16.4-.1C4.4 3.7.7 7.3.7 12c0 5.5-.1 10.9-.1 16.4 0 4.7 3.6 8.4 8.3 8.4h16.4c4.7 0 8.4-3.6 8.4-8.3 0-5.5.1-10.9.1-16.4.1-4.6-3.5-8.3-8.3-8.3"/>
        <path stroke="#C6C6C6" stroke-width=".146" d="M25.5 3.8c-5.5 0-10.9-.1-16.4-.1C4.4 3.7.7 7.3.7 12c0 5.5-.1 10.9-.1 16.4 0 4.7 3.6 8.4 8.3 8.4h16.4c4.7 0 8.4-3.6 8.4-8.3 0-5.5.1-10.9.1-16.4.1-4.6-3.5-8.3-8.3-8.3z"/>
        <path fill="#FF671B" d="M16.2 31.8h6.5c2.8 0 4.4-1.1 5.3-2 1.6-1.8 1.5-3.9 1.5-4.6l.1-14.1c0-1.3-1.1-2.4-2.5-2.4s-2.5 1.1-2.5 2.4l-.1 14.2v.1c0 .8-.3 1.4-1.1 1.5h-7.2c-1.4 0-2.5 1.1-2.5 2.4 0 1.4 1.1 2.5 2.5 2.5"/>
        <path fill="#00A7CE" d="M18.3 8.7h-6.5c-2.8 0-4.4 1.1-5.3 2C4.9 12.5 5 14.6 5 15.3l-.1 14.1c0 1.3 1.1 2.4 2.5 2.4s2.5-1.1 2.5-2.4l.1-14.2v-.1c0-.8.3-1.4 1.1-1.5h7.2c1.4 0 2.5-1.1 2.5-2.4 0-1.4-1.1-2.4-2.5-2.5"/>
    </g>
</svg>
