<svg xmlns="http://www.w3.org/2000/svg" width="220" height="39" viewBox="0 0 220 39">
    <g fill="none" fill-rule="evenodd">
        <path fill="#FFF" d="M200.056 27.832h4.626c.823 0 1.337-.102 1.645-.41.309-.308.309-.822.309-1.027v-12.53h-4.627c-.822 0-1.336.103-1.645.513-.205.308-.205.925-.205 1.233v12.221h-.103zm4.729 5.033H198c-2.776 0-3.084-2.054-3.084-2.876V2.568c0-1.336 1.13-2.465 2.57-2.465s2.57 1.13 2.57 2.465V9.14c.617-.103 1.234-.206 1.85-.206h6.786c1.028 0 1.953.514 2.57 1.438.41.513.514 1.232.514 1.849v13.864c0 .72.103 2.876-1.542 4.725-.926.821-2.57 2.054-5.449 2.054zM182.477 12.632c-4.215 0-4.832 3.903-4.832 8.217 0 7.189 2.364 8.216 4.832 8.216 2.467 0 4.831-1.027 4.831-8.216 0-7.19-2.364-8.217-4.831-8.217m0 20.746c-6.785 0-10.28-4.21-10.28-12.53 0-8.318 3.495-12.53 10.28-12.53 6.887 0 10.28 4.109 10.28 12.53 0 8.32-3.495 12.53-10.28 12.53M71.346 12.632c-4.215 0-4.832 3.903-4.832 8.217 0 7.189 2.365 8.216 4.832 8.216 2.467 0 4.832-1.027 4.832-8.216 0-7.19-2.365-8.217-4.832-8.217m0 20.746c-6.785 0-10.28-4.21-10.28-12.53 0-8.318 3.495-12.53 10.28-12.53 6.888 0 10.28 4.109 10.28 12.53 0 8.32-3.495 12.53-10.28 12.53M117.813 32.968c-1.542 0-2.364-.309-2.364-.309l-.309-.102V16.33c0-2.26-1.233-3.39-3.598-3.39-1.748 0-3.495.925-4.523 2.465v17.152l-.309.102s-.925.309-2.364.309c-1.645 0-2.365-.309-2.365-.309l-.308-.102V9.243l.308-.102c.103 0 .823-.309 2.365-.309 1.439 0 2.364.309 2.364.309l.309.102v1.233c1.645-1.438 3.7-2.157 6.168-2.157 4.523 0 7.299 2.773 7.299 7.19v17.048l-.308.102c0-.102-.823.309-2.365.309M128.3 18.59h8.532c0-.412.103-.925.103-1.541 0-2.876-1.337-4.314-3.907-4.314-2.776 0-4.318 1.951-4.729 5.854m4.935 14.79c-6.991 0-10.486-4.314-10.486-12.633 0-8.01 3.7-12.427 10.28-12.427 5.86 0 9.252 3.39 9.252 9.346 0 2.773-.514 4.621-.514 4.724l-.102.308h-13.365c.514 5.238 2.981 5.957 5.654 5.957 2.982 0 4.935-1.232 4.935-1.232l.308-.206.309.206c.925.821 1.542 2.156 1.542 3.492v.205l-.206.103c-.103.308-2.673 2.156-7.607 2.156M215.99 10.99h1.131c.103 0 .309.102.412.102l.308.308c.103.103.103.308.103.41 0 .104 0 .206-.103.309 0 .103-.103.205-.103.205l-.205.206c-.103 0-.103.102-.206.102l.925 1.233h-.514l-1.028-1.335.206-.103c.103 0 .103-.103.205-.103.103 0 .103-.102.206-.102s.103-.103.103-.206c0-.102.103-.102.103-.205 0-.206-.103-.308-.206-.411-.103-.103-.308-.103-.514-.103h-.308v2.568h-.412v-2.876h-.102zm.823 3.902c.411 0 .72-.103.925-.206.309-.102.514-.308.72-.513.206-.205.308-.514.514-.719.103-.308.206-.616.206-.924 0-.308-.103-.616-.206-.925-.103-.308-.308-.513-.514-.719-.206-.205-.411-.41-.72-.513-.308-.103-.617-.205-.925-.205-.308 0-.72.102-.925.205-.309.103-.514.308-.72.513-.205.206-.308.514-.411.72-.103.308-.206.616-.206.924 0 .308.103.616.206.924.103.308.308.514.411.719.206.205.411.41.72.513.205.103.617.206.925.206zm0 .41c-.411 0-.822-.102-1.13-.205-.31-.102-.618-.308-.926-.616-.206-.205-.411-.513-.617-.924a3.689 3.689 0 0 1-.205-1.13c0-.41.102-.822.205-1.13.103-.308.309-.616.617-.924.206-.205.514-.41.925-.616.309-.103.72-.206 1.131-.206.411 0 .823.103 1.13.206.31.102.618.308.926.616.206.205.411.513.617.924.103.308.206.72.206 1.13 0 .41-.103.822-.206 1.13-.103.308-.308.616-.617.924-.205.205-.514.41-.925.616-.308.206-.72.206-1.13.206zM158.42 8.935h-6.784c-2.879 0-4.627 1.13-5.45 2.054-1.644 1.849-1.541 4.108-1.541 4.725v14.583c0 1.335 1.13 2.465 2.57 2.465s2.57-1.13 2.57-2.465V15.508c0-.822.308-1.438 1.13-1.54h7.506c1.439 0 2.57-1.13 2.57-2.465a2.544 2.544 0 0 0-2.57-2.568M156.364 32.762h6.786c2.878 0 4.626-1.13 5.448-2.054 1.645-1.849 1.542-4.108 1.542-4.724V11.4c0-1.335-1.13-2.465-2.57-2.465S165 10.065 165 11.4v14.789c0 .822-.308 1.438-1.13 1.54H156.363c-1.439 0-2.57 1.13-2.57 2.466 0 1.54 1.131 2.567 2.57 2.567M97.355 8.935H90.57c-2.878 0-4.626 1.13-5.449 2.054-1.644 1.849-1.542 4.108-1.542 4.725v14.583c0 1.335 1.131 2.465 2.57 2.465 1.44 0 2.57-1.13 2.57-2.465V15.508c0-.822.309-1.438 1.131-1.54h7.505c1.44 0 2.57-1.13 2.57-2.465a2.544 2.544 0 0 0-2.57-2.568M57.364 27.832H49.86c-.72-.205-1.028-.718-1.131-1.437V15.405c0-.821.308-1.335 1.13-1.437h7.505c1.44 0 2.57-1.13 2.57-2.465s-1.13-2.465-2.57-2.465H50.58c-2.878 0-4.626 1.13-5.448 2.054-1.645 1.849-1.542 4.108-1.542 4.724v10.27c0 .617-.103 2.876 1.542 4.725.822.924 2.57 2.054 5.448 2.054h6.785c1.44 0 2.57-1.13 2.57-2.465 0-1.438-1.233-2.568-2.57-2.568M26.215 3.903c-5.654 0-11.206-.103-16.86-.103C4.523 3.8.72 7.497.72 12.324c0 5.649-.103 11.195-.103 16.844 0 4.827 3.7 8.627 8.533 8.627h16.86c4.831 0 8.635-3.698 8.635-8.525 0-5.648.103-11.194.103-16.843.102-4.724-3.598-8.524-8.533-8.524"/>
        <path stroke="#C6C6C6" stroke-width=".5" d="M26.215 3.903c-5.654 0-11.206-.103-16.86-.103C4.523 3.8.72 7.497.72 12.324c0 5.649-.103 11.195-.103 16.844 0 4.827 3.7 8.627 8.533 8.627h16.86c4.831 0 8.635-3.698 8.635-8.525 0-5.648.103-11.194.103-16.843.102-4.724-3.598-8.524-8.533-8.524z"/>
        <path fill="#FF671B" d="M16.654 32.66h6.682c2.879 0 4.524-1.13 5.449-2.055 1.645-1.848 1.542-4.005 1.542-4.724L30.43 11.4c0-1.335-1.13-2.465-2.57-2.465s-2.57 1.13-2.57 2.465l-.103 14.584v.102c0 .822-.308 1.438-1.13 1.541H16.653c-1.439 0-2.57 1.13-2.57 2.465a2.544 2.544 0 0 0 2.57 2.567"/>
        <path fill="#00A7CE" d="M18.813 8.935h-6.682c-2.879 0-4.524 1.13-5.449 2.054-1.645 1.849-1.542 4.006-1.542 4.725l-.103 14.48c0 1.336 1.131 2.465 2.57 2.465 1.44 0 2.57-1.13 2.57-2.464l.103-14.584v-.103c0-.822.309-1.438 1.131-1.54h7.402c1.44 0 2.57-1.13 2.57-2.465 0-1.438-1.13-2.465-2.57-2.568"/>
    </g>
</svg>
